<?xml version="1.0" encoding="UTF-8"?>
<svg id="OBJECTS" xmlns="http://www.w3.org/2000/svg" version="1.1" xmlns:xlink="http://www.w3.org/1999/xlink" viewBox="0 0 330.3 259.8">
  <!-- Generator: Adobe Illustrator 29.2.1, SVG Export Plug-In . SVG Version: 2.1.0 Build 116)  -->
  <defs>
    <style>
      .st0 {
        fill: url(#New_Gradient_Swatch_118);
      }

      .st1 {
        fill: url(#New_Gradient_Swatch_122);
      }

      .st2 {
        fill: url(#New_Gradient_Swatch_114);
      }

      .st3 {
        fill: url(#New_Gradient_Swatch_123);
      }

      .st4 {
        fill: url(#New_Gradient_Swatch_126);
      }

      .st5 {
        fill: url(#New_Gradient_Swatch_15);
      }

      .st6 {
        fill: url(#New_Gradient_Swatch_129);
      }

      .st7 {
        fill: url(#New_Gradient_Swatch_18);
      }

      .st8 {
        fill: url(#New_Gradient_Swatch_128);
      }

      .st9 {
        fill: url(#New_Gradient_Swatch_113);
      }

      .st10 {
        fill: url(#New_Gradient_Swatch_119);
      }

      .st11 {
        fill: url(#New_Gradient_Swatch_131);
      }

      .st12 {
        fill: url(#New_Gradient_Swatch_111);
      }

      .st13 {
        fill: url(#New_Gradient_Swatch_13);
      }

      .st14 {
        fill: url(#New_Gradient_Swatch_133);
      }

      .st15 {
        fill: url(#New_Gradient_Swatch_14);
      }

      .st16 {
        fill: url(#New_Gradient_Swatch_132);
      }

      .st17 {
        fill: url(#New_Gradient_Swatch_19);
      }

      .st18 {
        fill: url(#New_Gradient_Swatch_117);
      }

      .st19 {
        fill: url(#New_Gradient_Swatch_116);
      }

      .st20 {
        fill: url(#New_Gradient_Swatch_120);
      }

      .st21 {
        fill: url(#New_Gradient_Swatch_11);
      }

      .st22 {
        fill: url(#New_Gradient_Swatch_112);
      }

      .st23 {
        fill: url(#New_Gradient_Swatch_124);
      }

      .st24 {
        fill: url(#New_Gradient_Swatch_16);
      }

      .st25 {
        fill: url(#New_Gradient_Swatch_115);
      }

      .st26 {
        fill: url(#New_Gradient_Swatch_121);
      }

      .st27 {
        fill: url(#New_Gradient_Swatch_127);
      }

      .st28 {
        fill: url(#New_Gradient_Swatch_110);
      }

      .st29 {
        fill: url(#New_Gradient_Swatch_1);
      }

      .st30 {
        fill: url(#New_Gradient_Swatch_125);
      }

      .st31 {
        fill: url(#New_Gradient_Swatch_130);
      }

      .st32 {
        fill: url(#New_Gradient_Swatch_12);
      }

      .st33 {
        fill: url(#New_Gradient_Swatch_17);
      }
    </style>
    <linearGradient id="New_Gradient_Swatch_1" data-name="New Gradient Swatch 1" x1="-14.9" y1="196.6" x2="357.1" y2="196.6" gradientUnits="userSpaceOnUse">
      <stop offset="0" stop-color="#281809"/>
      <stop offset="0" stop-color="#2e1b0a"/>
      <stop offset="0" stop-color="#482a12"/>
      <stop offset="0" stop-color="#5e3719"/>
      <stop offset="0" stop-color="#6f411d"/>
      <stop offset="0" stop-color="#7b4821"/>
      <stop offset="0" stop-color="#824b23"/>
      <stop offset="0" stop-color="#844d24"/>
      <stop offset="0" stop-color="#f7e68a"/>
      <stop offset="0" stop-color="#8e5b22"/>
      <stop offset="0" stop-color="#9a672a"/>
      <stop offset=".1" stop-color="#ba8942"/>
      <stop offset=".2" stop-color="#e8ba65"/>
      <stop offset=".3" stop-color="#f8e889"/>
      <stop offset=".7" stop-color="#e6b964"/>
      <stop offset="1" stop-color="#603913"/>
    </linearGradient>
    <linearGradient id="New_Gradient_Swatch_11" data-name="New Gradient Swatch 1" x1="-14.9" y1="215.3" x2="357.1" y2="215.3" xlink:href="#New_Gradient_Swatch_1"/>
    <linearGradient id="New_Gradient_Swatch_12" data-name="New Gradient Swatch 1" x1="-14.9" y1="233.8" x2="357.1" y2="233.8" xlink:href="#New_Gradient_Swatch_1"/>
    <linearGradient id="New_Gradient_Swatch_13" data-name="New Gradient Swatch 1" x1="-14.9" y1="205.2" x2="357.1" y2="205.2" xlink:href="#New_Gradient_Swatch_1"/>
    <linearGradient id="New_Gradient_Swatch_14" data-name="New Gradient Swatch 1" x1="1.8" y1="84.4" x2="332.5" y2="84.4" xlink:href="#New_Gradient_Swatch_1"/>
    <linearGradient id="New_Gradient_Swatch_15" data-name="New Gradient Swatch 1" x1="1.8" y1="84.4" x2="332.5" y2="84.4" xlink:href="#New_Gradient_Swatch_1"/>
    <linearGradient id="New_Gradient_Swatch_16" data-name="New Gradient Swatch 1" x1="1.8" y1="62.4" x2="332.5" y2="62.4" xlink:href="#New_Gradient_Swatch_1"/>
    <linearGradient id="New_Gradient_Swatch_17" data-name="New Gradient Swatch 1" x1="33.4" y1="181.2" x2="348" y2="181.2" xlink:href="#New_Gradient_Swatch_1"/>
    <linearGradient id="New_Gradient_Swatch_18" data-name="New Gradient Swatch 1" x1="33.4" y1="181.2" x2="348" y2="181.2" xlink:href="#New_Gradient_Swatch_1"/>
    <linearGradient id="New_Gradient_Swatch_19" data-name="New Gradient Swatch 1" x1="33.4" y1="181.2" x2="348" y2="181.2" xlink:href="#New_Gradient_Swatch_1"/>
    <linearGradient id="New_Gradient_Swatch_110" data-name="New Gradient Swatch 1" x1="33.4" y1="181.2" x2="348" y2="181.2" xlink:href="#New_Gradient_Swatch_1"/>
    <linearGradient id="New_Gradient_Swatch_111" data-name="New Gradient Swatch 1" x1="33.4" y1="181.2" x2="348" y2="181.2" xlink:href="#New_Gradient_Swatch_1"/>
    <linearGradient id="New_Gradient_Swatch_112" data-name="New Gradient Swatch 1" x1="33.4" y1="181.2" x2="348" y2="181.2" xlink:href="#New_Gradient_Swatch_1"/>
    <linearGradient id="New_Gradient_Swatch_113" data-name="New Gradient Swatch 1" x1="33.4" y1="181.2" x2="348" y2="181.2" xlink:href="#New_Gradient_Swatch_1"/>
    <linearGradient id="New_Gradient_Swatch_114" data-name="New Gradient Swatch 1" x1="33.4" y1="181.2" x2="348" y2="181.2" xlink:href="#New_Gradient_Swatch_1"/>
    <linearGradient id="New_Gradient_Swatch_115" data-name="New Gradient Swatch 1" x1="33.4" y1="181.2" x2="348" y2="181.2" xlink:href="#New_Gradient_Swatch_1"/>
    <linearGradient id="New_Gradient_Swatch_116" data-name="New Gradient Swatch 1" x1="33.4" y1="181.2" x2="348" y2="181.2" xlink:href="#New_Gradient_Swatch_1"/>
    <linearGradient id="New_Gradient_Swatch_117" data-name="New Gradient Swatch 1" x1="33.4" y1="181.2" x2="348" y2="181.2" xlink:href="#New_Gradient_Swatch_1"/>
    <linearGradient id="New_Gradient_Swatch_118" data-name="New Gradient Swatch 1" x1="33.4" y1="181.2" x2="348" y2="181.2" xlink:href="#New_Gradient_Swatch_1"/>
    <linearGradient id="New_Gradient_Swatch_119" data-name="New Gradient Swatch 1" x1="33.4" y1="181.1" x2="348" y2="181.1" xlink:href="#New_Gradient_Swatch_1"/>
    <linearGradient id="New_Gradient_Swatch_120" data-name="New Gradient Swatch 1" x1="33.4" y1="181.2" x2="348" y2="181.2" xlink:href="#New_Gradient_Swatch_1"/>
    <linearGradient id="New_Gradient_Swatch_121" data-name="New Gradient Swatch 1" x1="33.4" y1="181.2" x2="348" y2="181.2" xlink:href="#New_Gradient_Swatch_1"/>
    <linearGradient id="New_Gradient_Swatch_122" data-name="New Gradient Swatch 1" x1="33.4" y1="181.2" x2="348" y2="181.2" xlink:href="#New_Gradient_Swatch_1"/>
    <linearGradient id="New_Gradient_Swatch_123" data-name="New Gradient Swatch 1" x1="33.4" y1="181.2" x2="348" y2="181.2" xlink:href="#New_Gradient_Swatch_1"/>
    <linearGradient id="New_Gradient_Swatch_124" data-name="New Gradient Swatch 1" x1="33.4" y1="181.1" x2="348" y2="181.1" xlink:href="#New_Gradient_Swatch_1"/>
    <linearGradient id="New_Gradient_Swatch_125" data-name="New Gradient Swatch 1" x1="132.1" y1="56.2" x2="193.4" y2="72.2" xlink:href="#New_Gradient_Swatch_1"/>
    <linearGradient id="New_Gradient_Swatch_126" data-name="New Gradient Swatch 1" x1="-15.6" y1="131.7" x2="400.3" y2="189.1" xlink:href="#New_Gradient_Swatch_1"/>
    <linearGradient id="New_Gradient_Swatch_127" data-name="New Gradient Swatch 1" x1="-15.2" y1="128.4" x2="400.7" y2="185.9" xlink:href="#New_Gradient_Swatch_1"/>
    <linearGradient id="New_Gradient_Swatch_128" data-name="New Gradient Swatch 1" x1="-14.6" y1="123.8" x2="401.4" y2="181.3" xlink:href="#New_Gradient_Swatch_1"/>
    <linearGradient id="New_Gradient_Swatch_129" data-name="New Gradient Swatch 1" x1="-13.8" y1="118.3" x2="402.1" y2="175.8" xlink:href="#New_Gradient_Swatch_1"/>
    <linearGradient id="New_Gradient_Swatch_130" data-name="New Gradient Swatch 1" x1="-13.1" y1="113.4" x2="402.8" y2="170.9" xlink:href="#New_Gradient_Swatch_1"/>
    <linearGradient id="New_Gradient_Swatch_131" data-name="New Gradient Swatch 1" x1="-12.4" y1="108.5" x2="403.5" y2="166" xlink:href="#New_Gradient_Swatch_1"/>
    <linearGradient id="New_Gradient_Swatch_132" data-name="New Gradient Swatch 1" x1="-11.7" y1="103" x2="404.3" y2="160.5" xlink:href="#New_Gradient_Swatch_1"/>
    <linearGradient id="New_Gradient_Swatch_133" data-name="New Gradient Swatch 1" x1="-11.2" y1="99.8" x2="404.7" y2="157.3" xlink:href="#New_Gradient_Swatch_1"/>
  </defs>
  <g>
    <path class="st29" d="M320.7,196.6l-15.8-4.5-2.8,2.8h-136.4c-.2,0-.4,0-.5.1-.2,0-.4,0-.5,0H28.2l-2.8-2.8-15.8,4.5,15.8,4.5,2.8-2.8h136.4c.2,0,.4,0,.5-.1.2,0,.4.1.5.1h136.4s2.8,2.8,2.8,2.8l15.8-4.5Z"/>
    <path class="st21" d="M242.7,199.5c-5.8-.2-11.6,1.1-16.9,3.2-5.3,2.2-10.1,5.7-15.8,6.6-2.8.5-6.1.5-8.7-.9,1.1,0,2.2-.2,3.1-.4,2.7-.8,4.6-3,4.3-5.9-.2-2.8-3.1-4.7-5.8-3.7-2.3.9-3.4,5.2-.2,5.7h0c0,0,.1,0,.2,0h0s0,0,.1,0c.2,0,.3-.2.4-.4.2-.4.1-1.1.4-1.5.4-.7,1-1.2,1.7-1.5.3-.1.7-.2,1-.3.9,1,1.1,2.5.6,3.8-.7,1.8-2.3,2.6-4.1,2.9-1,.2-2.4.3-3.5,0-.6-.5-1.1-1.1-1.5-1.7-.4-1.5-1.1-2.9-2.3-4-2.6-2.4-6.5-3.7-10.1-2.8-4.7,1.1-9.2,3.6-12.7,7-1.9,1.8-4.3,4.2-5.9,6.8-.8,1.1-1.4,2.3-1.8,3.5-.4-1.3-1.1-2.5-1.8-3.5-1.6-2.6-4-5-5.9-6.8-3.5-3.4-8-5.9-12.7-7-3.5-.9-7.4.4-10.1,2.8-1.2,1.1-2,2.5-2.3,4-.5.6-1,1.2-1.5,1.7-1.2.3-2.5.1-3.5,0-1.8-.3-3.4-1.1-4.1-2.9-.5-1.3-.3-2.8.6-3.8.3.1.7.2,1,.3.7.3,1.3.9,1.7,1.5.3.4.2,1,.4,1.5,0,.2.2.3.4.4,0,0,0,0,.1,0h0c0,0,.1,0,.2,0h0c3.1-.5,2.1-4.8-.2-5.7-2.7-1.1-5.6.9-5.8,3.7-.2,2.9,1.6,5.1,4.3,5.9.9.3,2,.4,3.1.4-2.6,1.5-5.8,1.4-8.6.9-5.7-1-10.6-4.5-15.8-6.6-5.3-2.2-11.1-3.4-16.9-3.2-3.7.1-6.6,1.8-7.6,5.3-.2.3-.4.7-.5,1.2,0,.4.4.7.7.4,2.5-3,6.8.4,9.8,1.1,2.3.5,4.6,0,6.8-1.1,1.3-.6,2.4-1.4,3.8-1.9,1.5-.5,2.9-.2,4.4,0,0,0,0,0,0,0,2.2,1,4.4,2.1,6.6,3.2,4.5,2.3,9.4,3.9,14.5,3.2,2.2-.3,4.4-1.4,5.9-3.1,0,1.3.3,2.7.7,4,1.2,3.6,4.2,6.7,8,7.3,3.6.6,7.5-1.6,8.9-4.9,1.4-3.4-.4-7.2-4.2-7.8-3.1-.5-5.1,2.5-4.2,5.2,0,1,.4,2,.9,2.9.2.3.7.4,1,.1.6-.7,1.6-1.2,2.2-1.9.9-1.3.5-3.4,2.3-3.5.6.7,1,1.6,1,2.4.2,3.4-3.6,5.8-6.6,6-6.4.4-10.2-8.9-7.3-13.8,3.6-6.2,11.6-3.9,16.6-1.2,2.8,1.5,5.4,3.6,7.7,6,.6,1.8,1.4,3.5,1.6,5.5.3,2.6-.4,5.1-1.7,7.2-1.9,3.3-3.9,6.6-2.6,10.6.1.3.6.3.7,0,0,0,0-.1,0-.2,1.3-2.1,2.4-4,4.1-5.8,1.4-1.4,2.8-2.8,3.7-4.5.1-.2.2-.4.3-.7,0,.2.2.4.3.7,1,1.7,2.4,3.1,3.7,4.5,1.7,1.8,2.9,3.7,4.1,5.8,0,0,0,.1,0,.2,0,.3.6.3.7,0,1.3-4-.7-7.3-2.6-10.6-1.3-2.2-2-4.7-1.7-7.2.2-2,1-3.7,1.6-5.5,2.3-2.4,4.9-4.5,7.7-6,5-2.7,13-5.1,16.6,1.2,2.9,4.9-.9,14.2-7.3,13.8-3-.2-6.7-2.5-6.6-6,0-.9.4-1.8,1-2.4,1.8.1,1.5,2.3,2.3,3.5.6.8,1.5,1.2,2.2,1.9.3.3.8.2,1-.1.5-.9.8-1.9.9-2.9.9-2.7-1.1-5.6-4.2-5.2-3.8.6-5.6,4.3-4.2,7.8,1.4,3.3,5.3,5.5,8.9,4.9,3.8-.6,6.7-3.8,8-7.3.4-1.3.7-2.6.7-4,1.5,1.6,3.7,2.7,5.9,3.1,5.1.7,10-.9,14.5-3.2,2.2-1.1,4.4-2.2,6.6-3.2,0,0,0,0,0,0,1.5-.1,2.9-.5,4.4,0,1.4.5,2.5,1.3,3.8,1.9,2.1,1,4.4,1.6,6.8,1.1,3-.7,7.3-4.1,9.8-1.1.3.3.7,0,.7-.4,0-.5-.2-.9-.5-1.2-1-3.4-3.9-5.1-7.6-5.3ZM89.9,202.6c.2,0,.5,0,.7.1-.4,0-.7-.1-1.1-.2.1,0,.3,0,.4,0ZM88.7,205.7c-1.2-.4-3.5-1.5-5.5-1.8,2.5-.5,5,.7,7.7,1.2,1.5.3,3.1.4,4.7.2-2.2.9-4.3,1.4-6.9.4ZM144.2,212h0s0,0,0,0c0,0,0,0,0,0ZM161.8,223.3c-.9,1-1.9,2.1-2.9,3.1.2-.4.4-.7.6-1.1.1-.2.3-.4.4-.6,1.8-2,3.6-5.5,3.8-8.6.1.3.2.6.3.9.7,2.4-.7,4.5-2.3,6.3ZM168.5,223.3c-1.5-1.7-3-3.8-2.3-6.3,0-.3.2-.6.3-.9.2,3.1,2,6.7,3.8,8.6.1.2.3.4.4.6.2.3.4.7.6,1.1-.9-1.1-1.9-2.1-2.9-3.1ZM186,212s0,0,0,0c0,0,0,0,0,0h0ZM240.3,202.6c.1,0,.3,0,.4,0-.4,0-.7.1-1.1.2.2,0,.5,0,.7-.1ZM234.7,205.2c1.6.2,3.2.1,4.7-.2,2.6-.5,5.2-1.7,7.7-1.2-2,.3-4.3,1.4-5.5,1.8-2.6.9-4.7.5-6.9-.4Z"/>
    <polygon class="st32" points="165.1 223.9 165.1 223.9 165.1 223.9 165.1 223.9 165.1 223.9 160.8 228.2 165.1 243.5 165.1 243.7 165.1 243.6 165.1 243.7 165.1 243.5 169.5 228.2 165.1 223.9"/>
    <path class="st13" d="M165.1,208.2s0,0,.1,0c1.6,0,3-1.3,3-3s-1.3-3-3-3,0,0-.1,0c0,0,0,0-.1,0-1.6,0-3,1.3-3,3s1.3,3,3,3,0,0,.1,0Z"/>
  </g>
  <g>
    <path class="st15" d="M274.3,96.6c-.2.3-.4.6-.6.9,0,.1,0,.3.2.2.1,0,.2-.2.3-.3,0,0,0,0,0,0,0,0,.1,0,.2,0,1.5-.4,2.8-1.4,4.4-1.8,1.8-.5,3.8-.8,5.7-.7,3.1.2,5.9,1.7,8.9,1.8,2.8.2,7.5-2.1,3.8-5-4.4-3.3-9.3-1.7-13.9,0,0,0,0,0,0,0,2.6-1.2,5.3-2.3,7.8-3.9,2.2-1.4,6.9-4.1,6.1-7,0-.4.1-.8,0-1.1-.1-.2-.2-.3-.4-.3-.5-1-1.6-1.7-2.8-2-2.3-.5-4.9,1.4-6.5,2.8-3.9,3.4-6.8,7.6-9.7,11.8,1.2-3.2,1.6-6.8,1.8-9.7.1-2.5-.3-9.9-3.6-11.2-.8-.8-2.1-.8-3.1,0-2,1.8-1.9,4.3-1.7,6.8.6,6.2,4,12,3,18.3ZM294.7,92c.1,0,.6.3,1.1.6-1.8-.6-4.1-.6-5.6-.7-1.2-.1-2.3-.1-3.4,0,1.2-.4,2.4-.6,3.6-.6,1.4,0,3,0,4.3.8ZM293.1,78.8c-.4,2.8-5.1,5.5-7.2,7-1.7,1.2-3.4,2.3-5,3.6,1.1-1.4,2.2-2.8,3.4-4.2,1.7-2,5.7-6.3,8.7-6.5ZM273.2,73.3c1.3,2.6,1.8,5.6,2.3,8.5,0,.5.1,1,.2,1.5,0,0,0,.2,0,.2,0,1.8-.3,3.7-.5,5.6-.1-.6-.3-1.2-.4-1.7-.5-2-3.5-11.3-1.6-14.1Z"/>
    <path class="st5" d="M36.9,96.9c3-.2,5.8-1.6,8.9-1.8,1.9-.1,3.9.2,5.7.7,1.5.4,2.8,1.4,4.4,1.8,0,0,.1,0,.2,0,0,0,0,0,0,0,.1,0,.2.2.3.3.1,0,.3,0,.2-.2-.2-.3-.4-.6-.6-.9-1-6.3,2.4-12.1,3-18.3.2-2.5.3-5-1.7-6.8-1-.9-2.3-.8-3.1,0-3.3,1.3-3.8,8.6-3.6,11.2.2,2.8.6,6.5,1.8,9.7-2.9-4.2-5.8-8.4-9.7-11.8-1.6-1.4-4.2-3.3-6.5-2.8-1.2.3-2.3,1-2.8,2-.1,0-.3.1-.4.3-.2.3-.2.7,0,1.1-.8,2.9,3.9,5.6,6.1,7,2.4,1.5,5.1,2.7,7.8,3.9,0,0,0,0,0,0-4.6-1.7-9.5-3.4-13.9,0-3.7,2.8,1,5.1,3.8,5ZM55.4,87.5c-.1.5-.3,1-.4,1.7-.2-1.9-.4-3.7-.5-5.6,0,0,0-.2,0-.2,0-.5.1-1,.2-1.5.5-2.9,1-5.8,2.3-8.5,1.9,2.8-1.1,12.1-1.6,14.1ZM45.9,85.3c1.2,1.4,2.3,2.8,3.4,4.2-1.5-1.3-3.2-2.4-5-3.6-2.1-1.5-6.7-4.1-7.2-7,3.1.1,7,4.4,8.8,6.5ZM39.9,91.2c1.2,0,2.4.3,3.6.6-1.1-.1-2.3,0-3.4,0-1.5.1-3.8.2-5.6.7.5-.3.9-.6,1.1-.6,1.3-.7,2.9-.8,4.3-.8Z"/>
    <path class="st24" d="M10.2,108.6h154.7c0,0,.1,0,.2,0,0,0,.1,0,.2,0h154.7c.5,0,.9-.4.9-.9s-.4-.9-.9-.9h-12.4c.5-.2.9-.3,1.4-.6,2.5-1.3,4.9-3.5,5.1-6.4.2-3-1.3-6-4.1-7.3-2.3-1.1-5.6.1-6.6,2.6-1,2.5,1.2,4.4,3.5,4.9.8.2,1.5-1,.8-1.5-.3-.4-.7-.6-.6-1.2,0-.6.3-1.1.6-1.6.2-.3.5-.6.9-.8,0,0,.2,0,.2-.1,0,0,.2,0,.2,0,.4,0,.9,0,1.3.1.6.4,1,1,1.3,1.7,1.4,3.2,0,6.3-3,7.8-6,3.1-11.6-1.1-16.9-3.7-6.2-3-15-3.8-21,0,2.2-4.9,1.2-11.3-2.6-15.2-2.6-2.6-6.3-3.7-9.9-2.8-.2,0-.3,0-.5.1-4.1-.3-7.6-2.9-9.6-6.5-2.7-4.7-2.3-9.6,1.8-13.3,1.9-1.8,4.8-3.9,7.6-3.7,2.9.2,5.8,2.1,7,4.8.6,1.3.9,3.4.5,5.1-.8.8-1.8,1.3-2.3.2-.2-.5-.4-1.2-.8-1.5-1.1-1-2.2-1-3.6-1.1-.3,0-.5-.1-.8-.1-.2,0-.4.2-.4.4,0,.1,0,.3,0,.4-.3.1-.5.4-.4.8.6,2.7,2.2,5.6,5.3,5.6,2.7,0,4.7-3.6,4.8-5.9.2-6.7-7.2-11.6-13.2-8.7-6.3,3.1-10.5,9.2-7.7,16.1,1.5,3.7,5.3,7.8,9.5,8.5-2.8,1.6-5.3,4.4-4.1,7.6,1.3,3.5,4.7,4.5,8.2,4.3,1.5-.1,3.2-.5,4-1.5,1.6-1.1,2-3.6,1.1-5.3-.1-.2-.4-.3-.7-.3-.7.1-1.5.1-2.1.4-.2,0-.4,0-.6,0-.9.4-1.5,1-2.1,1.8-.3.4-.7,1-1.1,1.3-.9.7-2,.6-3.1.6,0,0-.2,0-.2,0-.5-.3-.9-.7-1.2-1.3-3.2-5.9,6.4-9.1,10.6-7,7.4,3.7,8.2,16.4.3,20.1-5.5,2.5-13.6,1.9-19.1-.3-5.3-2.1-9.4-6.1-14.1-9.3-4.1-2.8-8.6-5.1-13.6-5,.3,0,.6-.2.9-.3,3.4-.4,6.8-.3,10.1,1,2.9,1.1,4.9,3.3,7,5.4,2,2,9.3,8.8,11,2.8.6-2.1-1-4.6-2.5-6-1.8-1.6-3.9-2.7-6.2-3.4-1.1-.3-2.2-.6-3.3-.8,3.1-.4,5.6-1.5,4.6-4.5-.7-2-3.8-2.6-5.6-2.9-3.7-.6-7.5,0-11,1.5-3.8,1.6-7.3,3.6-10.9,5.7,1.2-1.5,2.3-3,3.3-4.5,2.3-3.7,4.7-9.5,4-14.3.5.3,1,.6,1.5.9,3.1,1.8,5.2,3.5,5.7,7.3,0,0,0,0,0,0,0,0,0,0,0,0,0,.4,0,.7.1,1,0,0,.1,0,.2,0,.8-.5,1-1.9,1.4-2.7.4-.8.8-1.6,1.2-2.3.9-1,1.9-2,2.7-3.2,1.2-1.7,2.1-3.6,2.5-5.7.6-3.6,0-7.7-2.6-10.5-2.4-2.5-6.9-4.3-10.2-2.5h0c.7-2.1,1-4.4,2.4-6.2,1.7-2.2,4.2-4.2,6.9-5,2.5-.7,6-.5,6.7,2.6.4,1.8-.7,3.8-2.8,3.7-1.6,0-3.2-1.1-1.1-2.3.5-.3.3-1.1-.3-1.1-3.9.3-2.6,4.5.5,5.1,4.1.9,6.9-3.9,4.5-7.1-2.5-3.4-7-2.8-10.3-.8-2.1,1.2-4.2,2.8-5.4,5-.5.9-.8,1.8-1.1,2.7-.4-2.5-1.6-4.9-2.9-6.8-2-2.7-6.6-6.7-10.3-5,0,0-.2,0-.3,0,.3-3.7-4.3-5-7.3-3.8,0,0,0,0,0,0-1.2-3.3-4-6.4-6.5-8.7-2.9-2.7-6.1-4.8-9.7-6.4-3.4-1.5-6.9-2.4-10.6-1.9-2.8.4-6.7,2-8.1,4.7-2.3,4.4,1.8,10.5,6.9,8.6,1.6-.6,3.3-2.6,2.8-4.4-.5-1.9-2.7-3-4.4-2.2-.3.1-.4.5-.2.8,0,.3-.1.6-.1.8,0,.8.1,1.5,0,2.3,0,.7-.6.7-1.2,1,0,0,0,0,0,0-.9-.3-1.8-.9-2.3-1.8-3-5.3,5-8.6,9.1-8.3,4.8.3,9.8,2.7,13.6,5.5,2.1,1.6,4.1,3.4,5.7,5.4,1.3,1.7,2.4,3.5,3.7,5.2-2.7,1.6-4.6,4.2-5.6,7.2-1.2,3.5-1.5,7.9.1,11.3,1.9,3.8,5.6,7.6,10.2,7.4.3,0,.4-.5.2-.6,0-.1,0-.3-.1-.4-1.4-1.5-3.1-3.2-3-5.4,0-1.8.8-3.9,2.2-5.1.5-.4,1-.7,1.5-.9.8,3.8.8,7.6.8,11.5,0,4.9-.5,9.8-2.6,14.3-3.9-1.8-8.4-.3-10.4,4.3-1.5,3.3-.4,8,2.8,9.6-1.3,1.4-2.2,3.3-3.4,4.7-1.1,1.3-2.5,2.5-3.6,3.9-1.8,1.5-3.6,2.9-5.6,4.1-2.6,1.6-5.4,3.1-8.3,4.2-1.4.5-2.9,1.1-4.4,1.3-1.8.3-3.6.3-5.3.5-1.8-.2-3.6-.2-5.3-.5-1.5-.3-2.9-.8-4.4-1.3-2.9-1.1-5.6-2.6-8.2-4.2-1.9-1.2-3.8-2.6-5.6-4.1-1.1-1.4-2.5-2.6-3.6-3.9-1.2-1.4-2.1-3.3-3.4-4.7,3.1-1.7,4.2-6.3,2.8-9.6-2-4.7-6.5-6.1-10.4-4.3-2.1-4.5-2.6-9.3-2.6-14.3,0-3.9,0-7.7.8-11.5.5.2,1.1.5,1.5.9,1.4,1.2,2.1,3.3,2.2,5.1.1,2.2-1.7,4-3,5.4-.1.1-.2.3-.1.4-.3.1-.2.6.1.6,4.5.2,8.3-3.6,10.2-7.4,1.7-3.4,1.3-7.8.1-11.3-1-3-2.9-5.6-5.6-7.2,1.3-1.7,2.4-3.5,3.7-5.2,1.7-2,3.6-3.8,5.7-5.4,3.8-2.9,8.8-5.2,13.6-5.5,4.2-.3,12.2,3,9.1,8.3-.5.9-1.4,1.5-2.3,1.8,0,0,0,0,0,0-.5-.3-1.1-.3-1.2-1,0-.8,0-1.5,0-2.3,0-.3,0-.6-.1-.8.1-.3.1-.7-.2-.8-1.8-.8-4,.3-4.4,2.2-.5,1.8,1.2,3.8,2.8,4.4,5.1,1.9,9.3-4.2,6.9-8.6-1.4-2.6-5.3-4.3-8.1-4.7-3.7-.5-7.2.5-10.6,1.9-3.6,1.6-6.8,3.7-9.7,6.4-2.5,2.3-5.3,5.5-6.5,8.7,0,0,0,0,0,0-3-1.3-7.6,0-7.3,3.8,0,0-.2,0-.3,0-3.7-1.7-8.3,2.3-10.3,5-1.4,1.9-2.5,4.3-2.9,6.8-.2-.9-.6-1.8-1.1-2.7-1.2-2.2-3.3-3.7-5.4-5-3.3-2-7.8-2.6-10.3.8-2.4,3.3.4,8,4.5,7.1,3.1-.7,4.4-4.9.5-5.1-.6,0-.8.8-.3,1.1,2.1,1.2.5,2.3-1.1,2.3-2.1.1-3.2-1.8-2.8-3.7.7-3.1,4.2-3.3,6.7-2.6,2.7.7,5.3,2.8,6.9,5,1.4,1.8,1.7,4.1,2.4,6.2,0,0,0,0,0,0-3.3-1.8-7.8,0-10.2,2.5-2.6,2.8-3.2,6.9-2.6,10.5.3,2,1.2,4,2.5,5.7.8,1.2,1.8,2.2,2.7,3.2.4.8.8,1.6,1.2,2.3.4.8.5,2.2,1.4,2.7,0,0,.2,0,.2,0,.2-.3.2-.7.1-1,0,0,0,0,0,0,0,0,0,0,0,0,.5-3.8,2.6-5.5,5.7-7.3.5-.3,1-.6,1.5-.9-.8,4.9,1.7,10.6,4,14.3.9,1.5,2,3,3.3,4.5-3.5-2.1-7.1-4.1-10.9-5.7-3.5-1.4-7.2-2-11-1.5-1.8.3-4.9.9-5.6,2.9-1,2.9,1.5,4.1,4.6,4.5-1.1.2-2.2.5-3.3.8-2.3.7-4.4,1.8-6.2,3.4-1.4,1.3-3.1,3.9-2.5,6,1.7,6,9-.7,11-2.8,2.1-2.2,4.1-4.3,7-5.4,3.3-1.3,6.7-1.4,10.1-1,.3,0,.6.2.9.3-5,0-9.5,2.2-13.6,5-4.6,3.2-8.8,7.2-14.1,9.3-5.5,2.2-13.6,2.8-19.1.3-7.9-3.6-7.1-16.4.3-20.1,4.2-2.1,13.8,1.1,10.6,7-.3.6-.7,1-1.2,1.3,0,0-.1,0-.2,0-1,0-2.2,0-3.1-.6-.4-.4-.8-.9-1.1-1.3-.6-.8-1.2-1.4-2.1-1.8-.2,0-.4-.1-.6,0-.7-.3-1.4-.3-2.1-.4-.3,0-.5,0-.7.3-.9,1.6-.5,4.1,1.1,5.3.9,1,2.5,1.4,4,1.5,3.5.2,6.8-.8,8.2-4.3,1.2-3.2-1.3-6.1-4.1-7.6,4.2-.7,7.9-4.8,9.5-8.5,2.9-6.9-1.4-13.1-7.7-16.1-6-2.9-13.4,2-13.2,8.7,0,2.4,2.1,5.9,4.8,5.9,3.1,0,4.7-2.9,5.3-5.6,0-.4-.1-.7-.4-.8,0-.1,0-.2,0-.4,0-.2-.2-.4-.4-.4-.3,0-.5,0-.8.1-1.4,0-2.5,0-3.6,1.1-.4.4-.6,1-.8,1.5-.4,1.2-1.5.6-2.3-.2-.4-1.7-.1-3.7.5-5.1,1.2-2.6,4.1-4.6,7-4.8,2.8-.2,5.7,2,7.6,3.7,4.2,3.8,4.5,8.6,1.8,13.3-2.1,3.6-5.6,6.2-9.6,6.5-.2,0-.3,0-.5-.1-3.6-.9-7.3.3-9.9,2.8-3.9,3.9-4.8,10.2-2.6,15.2-6-3.9-14.8-3.1-21,0-5.3,2.6-10.9,6.8-16.9,3.7-3-1.6-4.4-4.7-3-7.8.3-.7.8-1.2,1.3-1.7.4,0,.9-.2,1.3-.1,0,0,.2,0,.2,0,0,0,.2,0,.2.1.4.2.7.5.9.8.3.5.6,1,.6,1.6,0,.6-.4.8-.6,1.2-.7.5,0,1.6.8,1.5,2.3-.5,4.5-2.4,3.5-4.9-.9-2.5-4.2-3.7-6.6-2.6-2.8,1.3-4.3,4.3-4.1,7.3.2,3,2.6,5.2,5.1,6.4.5.2.9.4,1.4.6h-12.4c-.5,0-.9.4-.9.9s.4.9.9.9ZM103.5,89.1c.3,0,.7,0,1,0-.4,0-.8.1-1.2.2,0,0,0,0,.2,0ZM128.3,98.4c1.4.5,2.9,1.1,4.3,1.7,3.6,2.3,7.5,4,11.7,5,2.4.6,5,.9,7.5,1.2,1,.1,2,.3,2.9.4h-36c.3-.4.6-.8.8-1.3,1.3-3.4-2.5-7-5-3.3-.5.7.3,1.4,1,1.2,1,.1,1.1,1.1.5,1.9-.4.6-1.1.7-1.8.7-.6,0-1.3-.1-1.9-.3-1.6-.8-2.8-2.4-2.9-4.2-.2-2.9,2.9-4.4,5.3-4.8,4.4-.8,9.4.5,13.6,1.9ZM157.9,106.7s0,0,0,0h-.2s0,0,.1,0ZM172.3,106.7s0,0,.1,0h-.2s0,0,0,0ZM226.7,89.1c0,0,0,0,.2,0-.4,0-.8-.1-1.2-.2.3,0,.7,0,1,0ZM197.7,100.1c1.4-.6,2.8-1.2,4.3-1.7,4.2-1.4,9.2-2.7,13.6-1.9,2.4.4,5.5,1.9,5.3,4.8,0,1.8-1.3,3.4-2.9,4.2-.7.2-1.3.3-1.9.3-.7,0-1.3-.1-1.8-.7-.6-.7-.4-1.8.5-1.9.7.2,1.5-.5,1-1.2-2.5-3.6-6.3-.1-5,3.3.2.5.5,1,.8,1.3h-36c1-.1,1.9-.3,2.9-.4,2.5-.4,5-.6,7.5-1.2,4.1-1.1,8.1-2.7,11.7-5ZM277.3,99.9c4-.7,8.1-.3,11.8,1.3,3.7,1.6,7.5,4.3,11.6,5.5h-36.1c1-.4,1.9-.9,2.7-1.6.4-.3.8-.7,1.1-1,2.6-2,5.4-3.7,8.9-4.3ZM235.8,100.3c3.7,2.8,7.4,5.2,11.7,6.5h-28.5c1.5-.9,2.8-2.2,3.2-3.5.8-2.6-.4-5.6-2.8-6.9-2.7-1.5-5.8-1.5-8.7-1.2-2.3.2-4.5.8-6.7,1.4,1.2-.7,2.4-1.4,3.7-2.1,0,0,.1,0,.2,0,4.1-2.1,8.6-3.5,12.9-2.6,5.8,1.3,10.4,5,15.1,8.5ZM243.1,94.5c.8.8,1.7,1.9,1.9,3.1,0,.2,0,.5,0,.6-.7-2.5-4.1-4.5-6-5.8-.7-.5-1.4-.9-2.2-1.4,2.2.7,4.7,1.7,6.3,3.4ZM232.5,83c1.3.2,2.9.4,4.1,1,.5.3.8.6,1.1.9-2.8-.8-6.1-.7-8.9-.5-2.1.1-4.2.3-6.2,1-.5,0-1,.1-1.4.2,0,0,.1,0,.2,0,3.5-1.6,7.3-3,11.2-2.5ZM220.1,66.7s0,0,0,0c0,0,0,0,0,0,0,0,0,0,0,0,0,0,0,0,0,0ZM218.8,63.9s0,0,0,0c-.1.2-.2.3-.3.5,0,0,0,0,0,0,0-.2.2-.3.3-.5ZM223.8,61s0,0,0,0c0,0,0,0,0,0,0,0,0,0,0,0,0,0,.1,0,.2,0ZM220.2,66.9c0,0,0,.1,0,.2,0,0,0,0,0,0,0,0,0,0,0,0ZM226.8,74.1s0,0,0,.1c0,0,0,0,0,0,0,0,0,0,0,0ZM230.6,66.9s0,0,0,0c0,.1,0,.2,0,.3,0,0,0-.2,0-.3ZM219.8,58.7s0,0,0,0c0,0,0,0,0,0,0,0,0,0,0,0ZM226.9,53.5c3.2,1,5.5,3.6,6.1,6.9.6,3.2,0,6.9-1.9,9.6-.3.4-.5.7-.8,1.1,1-2,1.8-4.1,1.8-6.1.5-3.4-.6-6.8-4.2-8.6-2-1-4.4-1.5-6.6-.6-.5.2-1.1.5-1.5.9.1-.5.3-.9.6-1.4,1.4-2,4.1-2.6,6.4-1.8ZM196.4,45.1c0,0,0,.2,0,.3,0,0,0,0,0,0,0-.1,0-.2,0-.4ZM196.5,44.9s0,0,0,.1c0,0,0,0,0-.1ZM195.7,52.8s0,0,0,.1c-.2-.4-.4-.8-.5-1.2.2.4.3.7.5,1ZM199.9,57.5s0,0,0,0c0,0,0,0,0,0,0,0,0,0,0,0ZM198.9,36c1.2-.9,2.8-1.9,4.4-1.8,1.8,0,2.8.9,3.2,2.3-4.1-1.7-8.8.7-10.8,4.5-.6,1.1-1,2.1-1.2,3.2,0-.3,0-.5.2-.8.7-2.8,1.9-5.7,4.3-7.5ZM206.7,68.4c.6-3.1.9-6.3.8-9.4,0-2.7-.2-5.5-.5-8.2-.1-1.2-.3-2.6-1-3.7,1.9-.7,4-1.1,5.2-2.8,1.6-2.1.6-4.8-1.2-6.3,6.8,1.1,10.7,8.4,10.7,15.1-1.3,1.1-2.2,2.7-2.3,4.5,0,.7,0,1.6.3,2.3-.7,0-1.5.3-2,.9-1.3,1.5-2,3.5-1.2,5.4.4.9,1,1.6,1.7,2.3.3,2.4.6,4.7,0,7.2-.8,3.3-2.2,6.3-4.2,9-1.9,2.7-4.2,5.2-6.7,7.5,2.9-5.1,4.3-12.1,0-16.8-.6-.6-1.1-1.1-1.8-1.5,1.5-1.2,1.8-3.8,2.1-5.5ZM183.3,101.6c2.7-1.7,5.2-3.7,7.4-5.9,1-.8,1.9-1.7,2.7-2.7,1.3-1.5,3-3.4,3.7-5.3.6.1,1.2.1,1.8,0,2.1-.2,4.8-1.5,4.8-4,0-2.1-1.5-3.8-3.5-4.1-1.6-.6-3.3.3-3.1,2.4,0,1,.6,1.9.9,2.9.3.9.2.7-.3,1.1-1.2-.2-2.2-.7-3-1.7-2.4-3.1-.9-8.3,2.6-10,4.5-2.2,8.9,2.1,9.9,6.4.3,1.2.4,2.5.3,3.8-.4,2.2-1.2,4.4-2.3,6.2-2.2,3.7-5.6,6.3-9.2,8.4-6.1,3.6-13.1,5.4-20.1,6.3,2.6-1,5.1-2.3,7.4-3.8ZM198.9,81.2s0,0,0,0c0,.1,0,.2,0,.4,0,0,0,0,0,.1,0-.2,0-.3,0-.5ZM132.9,74.4c3.5,1.7,5,6.9,2.6,10-.7,1-1.8,1.5-3,1.7-.5-.4-.6-.2-.3-1.1.3-1,.8-1.9.9-2.9.2-2.1-1.6-3-3.1-2.4-2,.3-3.5,2-3.5,4.1,0,2.5,2.7,3.7,4.8,4,.7,0,1.3,0,1.8,0,.7,2,2.5,3.8,3.7,5.3.8,1,1.7,2,2.7,2.7,2.2,2.2,4.7,4.2,7.4,5.9,2.3,1.5,4.8,2.8,7.4,3.8-7-.9-14-2.6-20.1-6.3-3.6-2.2-7.1-4.7-9.2-8.4-1-1.8-1.8-3.9-2.3-6.2,0-1.3,0-2.6.3-3.8.9-4.3,5.3-8.6,9.9-6.4ZM131.4,81.7s0,0,0-.1c0-.1,0-.2,0-.4,0,0,0,0,0,0,0,.1,0,.3,0,.5ZM133.8,45.4c0,0,0-.2,0-.3,0,.1,0,.2,0,.3,0,0,0,0,0,0ZM133.8,44.9s0,0,0,.1c0,0,0,0,0-.1ZM130.4,57.5s0,0,0,0c0,0,0,0,0,0,0,0,0,0,0,0ZM134.6,52.8c.2-.3.4-.7.5-1-.2.4-.3.8-.5,1.2,0,0,0,0,0-.1ZM127,34.2c1.6,0,3.2.9,4.4,1.8,2.3,1.8,3.6,4.7,4.3,7.5,0,.3.1.5.2.8-.2-1.1-.6-2.2-1.2-3.2-2-3.9-6.7-6.2-10.8-4.5.5-1.4,1.4-2.3,3.2-2.3ZM97.2,60.4c.6-3.3,2.9-5.9,6.1-6.9,2.3-.7,5-.2,6.4,1.8.3.4.5.9.6,1.4-.4-.4-1-.7-1.5-.9-2.2-.9-4.6-.4-6.6.6-3.6,1.8-4.7,5.2-4.2,8.6,0,2,.9,4.1,1.8,6.1-.3-.3-.6-.7-.8-1.1-1.9-2.7-2.5-6.4-1.9-9.6ZM110.4,58.7s0,0,0,0c0,0,0,0,0,0,0,0,0,0,0,0ZM111.7,64.3s0,0,0,0c0-.2-.2-.4-.3-.5,0,0,0,0,0,0,0,.1.2.3.3.5ZM106.6,61s0,0,0,0c0,0,0,0,0,0,0,0,0,0,0,0,0,0,.1,0,.2,0ZM110.1,66.7s0,0,0,0c0,0,0,0,0,0,0,0,0,0,0,0,0,0,0,0,0,0ZM110.1,66.9s0,0,0,0c0,0,0,0,0,0,0,0,0-.1,0-.2ZM99.6,66.8s0,0,0,0c0,0,0,.2,0,.3,0-.1,0-.2,0-.3ZM103.5,74.2s0,0,0-.1c0,0,0,0,0,0,0,0,0,0,0,0ZM113,75.8c-.6-2.5-.3-4.8,0-7.2.7-.6,1.3-1.4,1.7-2.3.9-1.9.1-3.9-1.2-5.4-.5-.6-1.3-.9-2-.9.3-.7.4-1.6.3-2.3,0-1.8-.9-3.4-2.3-4.5,0-6.7,3.9-14,10.7-15.1-1.8,1.5-2.8,4.1-1.2,6.3,1.2,1.7,3.3,2.1,5.2,2.8-.7,1-.9,2.5-1,3.7-.3,2.7-.4,5.5-.5,8.2,0,3.2.2,6.3.8,9.4.3,1.7.7,4.3,2.1,5.5-.6.4-1.2.9-1.8,1.5-4.3,4.7-3,11.8,0,16.8-2.5-2.2-4.8-4.7-6.7-7.5-1.9-2.7-3.4-5.8-4.2-9ZM93.7,84c1.2-.6,2.8-.8,4.1-1,3.9-.5,7.8.9,11.2,2.5,0,0,.1,0,.2,0-.5,0-.9-.2-1.4-.2-2-.7-4.1-.9-6.2-1-2.8-.2-6.1-.2-8.9.5.2-.3.6-.6,1.1-.9ZM85.3,97.6c.2-1.2,1.1-2.3,1.9-3.1,1.6-1.7,4.1-2.7,6.3-3.4-.8.4-1.5.9-2.2,1.4-1.9,1.3-5.3,3.3-6,5.8,0-.2,0-.4,0-.6ZM94.5,100.3c4.6-3.5,9.2-7.3,15.1-8.5,4.3-.9,8.9.5,12.9,2.6,0,0,.1,0,.2,0,1.3.7,2.6,1.4,3.7,2.1-2.2-.7-4.4-1.2-6.7-1.4-3-.3-6.1-.3-8.7,1.2-2.5,1.4-3.6,4.3-2.8,6.9.4,1.4,1.6,2.6,3.2,3.5h-28.5c4.3-1.3,8-3.6,11.7-6.5ZM41.2,101.2c3.7-1.7,7.8-2.1,11.8-1.3,3.4.6,6.2,2.2,8.9,4.3.4.4.7.7,1.1,1,.8.6,1.7,1.2,2.7,1.6H29.6c4-1.2,7.9-3.9,11.6-5.5Z"/>
  </g>
  <g>
    <path class="st33" d="M49.5,186.9c.4-.2.8-.4,1-.8.3-.4.5-.9.8-1.6.4.1.7.3.9.5-.3.8-.5,1.8-.6,3-1.1,0-2.4,0-4,0-2.5,0-4.3,0-5.3,0,0-.4,0-.7.1-.9.4,0,.7,0,.9-.2.2-.1.3-.3.4-.6,0-.3.1-.7.1-1.2v-8.4c0-.7,0-1.1-.3-1.4-.2-.2-.6-.4-1.1-.4,0-.2-.1-.5-.1-.9.8,0,1.6,0,2.5,0s1.7,0,2.5,0c0,.4,0,.7-.1.9-.4,0-.7,0-.9.2-.2.1-.3.3-.4.5,0,.3-.1.6-.1,1.1v8.3c0,.5,0,.9.1,1.2,0,.3.3.4.5.6.3.1.6.2,1.2.2h.1c.7,0,1.3,0,1.8-.2Z"/>
    <path class="st7" d="M64,185.4c-.2.7-.5,1.2-.9,1.7-.8.8-1.9,1.2-3.3,1.2s-3.1-.4-3.9-1.2c-.8-.8-1.1-2-1.1-3.7v-6.5c0-.5,0-.8,0-1.1,0-.2-.2-.4-.3-.5-.2,0-.4-.2-.8-.2,0-.2-.1-.5-.1-.9.5,0,1.3,0,2.4,0s1.8,0,2.4,0c0,.3,0,.6-.1.9-.4,0-.7.1-.9.2-.2,0-.3.2-.4.5,0,.2-.1.6-.1,1.1v6.2c0,1.3.3,2.3.8,3,.5.7,1.4,1.1,2.7,1.1s.8,0,1.2-.2c.4-.1.7-.3,1-.6.3-.3.6-.8.7-1.3.1-.5.2-1.3.2-2.4v-5.1c0-.7,0-1.2-.1-1.6,0-.3-.2-.6-.4-.7-.2-.2-.5-.3-.9-.3,0-.3-.1-.6-.1-.9.5,0,1.1,0,1.9,0s1.4,0,1.9,0c0,.2,0,.5-.1.9-.3,0-.6.1-.7.3-.2.2-.3.4-.4.8,0,.4-.1.9-.1,1.5v4.9c0,1.2,0,2.2-.2,2.8Z"/>
    <path class="st17" d="M79.2,188.1c-.6,0-1.4,0-2.5,0s-1.7,0-2.5,0c0-.3,0-.6,0-.9.3,0,.6,0,.7-.2.2,0,.2-.2.2-.4,0-.3-.2-.8-.6-1.5-.5-.8-.8-1.4-1.1-1.8l-.7-1.1-1.8,2.6c-.5.7-.7,1.2-.7,1.6s.4.7,1.1.8c0,.2.1.5.1.9-.7,0-1.4,0-2.2,0s-1.6,0-2.1,0c0-.4,0-.7.1-.9.7-.2,1.6-.9,2.4-2.1l2.6-3.7c-1.1-1.7-1.9-3-2.5-3.9-.5-.8-.9-1.3-1.1-1.6-.2-.3-.4-.5-.6-.6-.1-.1-.3-.2-.6-.2,0-.3-.1-.6-.1-.9.7,0,1.6,0,2.5,0s1.6,0,2.5,0c0,.3,0,.6,0,.9-.3,0-.6.2-.7.3-.2.1-.2.3-.2.4,0,.3.2.8.7,1.5.4.6.9,1.4,1.7,2.6l1.5-2.3c.5-.8.7-1.4.7-1.7s0-.4-.3-.5-.4-.2-.8-.2c0-.3-.1-.6-.1-.9.7,0,1.4,0,2.1,0s1.5,0,2,0c0,.4,0,.7,0,.9-.4,0-.7.3-1,.6-.3.3-.8.9-1.3,1.8l-2.2,3.3c.9,1.4,1.7,2.7,2.5,4.1.6.9,1,1.5,1.3,1.8.3.3.6.5.9.5,0,.2.1.5.1.9Z"/>
    <path class="st28" d="M91.4,185.4c-.2.7-.5,1.2-.9,1.7-.8.8-1.9,1.2-3.3,1.2s-3.1-.4-3.9-1.2c-.8-.8-1.1-2-1.1-3.7v-6.5c0-.5,0-.8,0-1.1,0-.2-.2-.4-.3-.5-.2,0-.4-.2-.8-.2,0-.2-.1-.5-.1-.9.5,0,1.3,0,2.4,0s1.8,0,2.4,0c0,.3,0,.6-.1.9-.4,0-.7.1-.9.2-.2,0-.3.2-.4.5,0,.2-.1.6-.1,1.1v6.2c0,1.3.3,2.3.8,3,.5.7,1.4,1.1,2.7,1.1s.8,0,1.2-.2c.4-.1.7-.3,1-.6.3-.3.6-.8.7-1.3.1-.5.2-1.3.2-2.4v-5.1c0-.7,0-1.2-.1-1.6,0-.3-.2-.6-.4-.7-.2-.2-.5-.3-.9-.3,0-.3-.1-.6-.1-.9.5,0,1.1,0,1.9,0s1.4,0,1.9,0c0,.2,0,.5-.1.9-.3,0-.6.1-.7.3-.2.2-.3.4-.4.8,0,.4-.1.9-.1,1.5v4.9c0,1.2,0,2.2-.2,2.8Z"/>
    <path class="st12" d="M106.2,186.5c.5.4,1.1.6,1.9.6,0,.4,0,.7,0,.9-1.4,0-2.5,0-3.2.2-.7-.9-1.4-2-2.2-3.2-.4-.7-.9-1.3-1.2-1.8-.4-.4-.9-1-1.5-1.5h-.7c-.2,0-.5,0-.8,0v3.7c0,.7,0,1.1.3,1.4.2.2.6.4,1.1.4,0,.2.1.5.1.9-.6,0-1.4,0-2.5,0s-1.8,0-2.4,0c0-.4,0-.7.1-.9.6,0,.9-.2,1.1-.4.2-.2.3-.7.3-1.4v-8.6c0-.7,0-1.1-.3-1.4-.2-.3-.6-.4-1.1-.4,0-.2-.1-.5-.1-.9.5,0,1.3,0,2.4,0h2.1c.3,0,.7,0,1.1,0,1.6,0,2.8.3,3.6.9.8.6,1.1,1.4,1.1,2.4s-.3,1.7-.9,2.4c-.6.6-1.4,1.1-2.5,1.4.5.4.9.8,1.3,1.2.3.4.8,1.1,1.4,2,.6.9,1.1,1.5,1.6,1.9ZM102.2,180.1c.7-.5,1.1-1.3,1.1-2.3s-.3-1.5-.8-2c-.5-.5-1.4-.7-2.6-.7s-1,0-1.5.2v5.6c.3,0,.6,0,.9,0,1.2,0,2.1-.3,2.9-.8Z"/>
    <path class="st22" d="M119.1,174.2c0,.3,0,.5,0,.8-.4.1-.7.3-1.1.7-.3.3-.7.9-1,1.5l-2.8,5.5v2c0,.7,0,1.3.1,1.6,0,.3.2.5.4.6.2.1.6.2,1.1.3,0,.2.1.5.1.9h-1c-.8,0-1.3,0-1.6,0-1.1,0-2,0-2.8,0,0-.3,0-.6.1-.9.5,0,.9-.1,1.1-.2.2-.1.4-.3.4-.6s.1-.8.1-1.4v-2.2l-3.4-6.5c-.2-.4-.4-.7-.6-.9-.2-.2-.5-.3-.9-.3,0-.2-.1-.5-.1-.8.8,0,1.5,0,2.1,0,1.4,0,2.3,0,2.7,0,0,.3,0,.6-.1.8-.6,0-.9.3-.9.6s.1.6.4,1.1c.8,1.6,1.6,3.2,2.4,5,.7-1.6,1.5-3.2,2.2-4.7.3-.6.4-1,.4-1.2s0-.4-.2-.5c-.2-.1-.4-.2-.7-.2,0-.3-.1-.6-.1-.8.3,0,1,0,2,0s1.1,0,1.8,0Z"/>
    <path class="st9" d="M134.6,186.4c.2.3.5.4.8.6.3.1.7.2,1.2.2,0,.4,0,.7,0,.9-1.4,0-2.5,0-3.2.2-.5-.8-1-1.6-1.4-2.4l-.2-.4c-.4-.8-.8-1.4-1.2-1.9-.3-.5-.8-1.1-1.4-1.7h-.6c-.2,0-.5,0-.8,0v3.7c0,.7,0,1.1.3,1.4.2.2.5.4,1.1.4,0,.2.1.5.1.9-.6,0-1.4,0-2.4,0s-1.8,0-2.4,0c0-.4,0-.7.1-.9.6,0,.9-.2,1.1-.4.2-.2.3-.7.3-1.4v-8.6c0-.7,0-1.1-.3-1.4-.2-.3-.6-.4-1.1-.4,0-.2-.1-.5-.1-.9.5,0,1.4,0,2.4,0s1.3,0,1.7,0h1.7c1.5,0,2.6.3,3.3.9.7.6,1.1,1.5,1.1,2.5s-.3,1.7-.9,2.3-1.4,1.1-2.5,1.4c.5.5.9,1,1.2,1.5.3.5.8,1.3,1.4,2.4.3.5.6.9.8,1.2ZM128.5,180.9c1.2,0,2.1-.3,2.9-.8.7-.5,1.1-1.3,1.1-2.3s-.3-1.5-.8-2c-.5-.5-1.4-.7-2.6-.7s-1,0-1.5.2v5.6c.3,0,.6,0,.9,0Z"/>
    <path class="st2" d="M148.5,185.1c-.3.8-.5,1.8-.6,3-1.1,0-2.5,0-4.4,0s-4.3,0-5.3,0c0-.4,0-.7.1-.9.4,0,.7,0,.9-.2.2-.1.3-.3.4-.6,0-.3.1-.7.1-1.2v-8.4c0-.7,0-1.1-.3-1.4-.2-.2-.6-.4-1.1-.4,0-.2-.1-.5-.1-.9.8,0,1.9,0,3.4,0,2.5,0,4.4,0,5.7,0,.1,1.5.3,2.6.4,3.2-.2.2-.5.2-.9.2,0-.8-.3-1.4-.8-1.9-.5-.5-1.3-.7-2.5-.7h-1.9v5.6h1.3c.9,0,1.4-.1,1.8-.3.3-.2.5-.7.5-1.3.3,0,.7-.1,1-.1,0,.5,0,1.2,0,2.2s0,1.9,0,2.4c-.4,0-.7,0-.9-.1,0-.7-.2-1.2-.6-1.4-.3-.3-.9-.4-1.7-.4h-1.3v3.7c0,.5,0,.9.1,1.2,0,.3.3.5.5.6.3.1.7.2,1.2.2h.1c.9,0,1.7,0,2.2-.3.5-.2.9-.5,1.1-.8.2-.3.5-.8.7-1.5.4.1.7.3.9.5Z"/>
    <path class="st25" d="M152.7,187.9c-.6-.2-1.3-.5-2-1,.1-.8.2-1.7.2-2.9.3,0,.7-.1,1.1-.1,0,1.1.3,1.9.8,2.5.5.6,1.3.9,2.3.9s1.5-.2,2-.6c.4-.4.6-.9.6-1.5s-.1-1-.4-1.3c-.3-.4-.6-.7-1-.9-.4-.2-.9-.5-1.7-.8-.8-.4-1.5-.7-2-1.1-.5-.3-.9-.7-1.3-1.3-.3-.5-.5-1.2-.5-2,0-1.1.4-2,1.1-2.7.7-.7,1.7-1,3-1s1.3,0,1.9.3c.6.2,1.1.4,1.5.6,0,1.2,0,2.1.1,2.7-.3.1-.7.2-1.1.2-.2-1.1-.5-1.9-.9-2.3-.4-.4-.9-.6-1.6-.6s-1.3.2-1.7.5c-.4.4-.6.9-.6,1.5s.1,1,.4,1.4c.3.4.6.7,1,.9.4.2,1,.5,1.7.9.8.4,1.4.7,1.9,1,.5.3.9.7,1.2,1.2.3.5.5,1.1.5,1.9s-.2,1.4-.5,1.9c-.3.6-.9,1.1-1.6,1.4-.7.4-1.6.5-2.6.5s-1.5-.1-2.1-.3Z"/>
    <path class="st19" d="M164.5,187.3c-1-.6-1.8-1.5-2.4-2.6-.6-1.1-.8-2.3-.8-3.6s.3-2.6.9-3.6c.6-1.1,1.4-1.9,2.4-2.5,1-.6,2.2-.9,3.4-.9s2.5.3,3.5.9c1,.6,1.8,1.4,2.4,2.5.6,1.1.9,2.3.9,3.7s-.3,2.5-.9,3.6c-.6,1.1-1.4,1.9-2.4,2.6-1,.6-2.2.9-3.5.9s-2.5-.3-3.5-.9ZM170.7,186.5c.6-.5,1.1-1.2,1.5-2,.3-.9.5-1.8.5-2.8s-.2-2.3-.7-3.3c-.4-1-1.1-1.8-1.8-2.4-.8-.6-1.6-.9-2.6-.9s-1.5.2-2.2.7c-.6.5-1.1,1.1-1.5,1.9-.4.8-.5,1.8-.5,2.9s.2,2.3.6,3.3c.4,1,1,1.8,1.7,2.5.8.6,1.7.9,2.7.9s1.6-.2,2.3-.7Z"/>
    <path class="st18" d="M187.9,186.5c.5.4,1.1.6,1.9.6,0,.4,0,.7,0,.9-1.4,0-2.5,0-3.2.2-.7-.9-1.4-2-2.2-3.2-.4-.7-.9-1.3-1.2-1.8-.4-.4-.9-1-1.5-1.5h-.7c-.2,0-.5,0-.8,0v3.7c0,.7,0,1.1.3,1.4.2.2.6.4,1.1.4,0,.2.1.5.1.9-.6,0-1.4,0-2.5,0s-1.8,0-2.4,0c0-.4,0-.7.1-.9.6,0,.9-.2,1.1-.4.2-.2.3-.7.3-1.4v-8.6c0-.7,0-1.1-.3-1.4-.2-.3-.6-.4-1.1-.4,0-.2-.1-.5-.1-.9.5,0,1.3,0,2.4,0h2.1c.3,0,.7,0,1.1,0,1.6,0,2.8.3,3.6.9.8.6,1.1,1.4,1.1,2.4s-.3,1.7-.9,2.4c-.6.6-1.4,1.1-2.5,1.4.5.4.9.8,1.3,1.2.3.4.8,1.1,1.4,2,.6.9,1.1,1.5,1.6,1.9ZM183.8,180.1c.7-.5,1.1-1.3,1.1-2.3s-.3-1.5-.8-2c-.5-.5-1.4-.7-2.6-.7s-1,0-1.5.2v5.6c.3,0,.6,0,.9,0,1.2,0,2.1-.3,2.9-.8Z"/>
    <path class="st0" d="M199.3,174.9c0,.5,0,1.4.1,2.5-.3.1-.6.2-1,.2,0-.8-.2-1.4-.6-1.9-.4-.4-.9-.6-1.7-.6h-1.1v10.3c0,.5,0,.8.1,1.1,0,.2.2.4.5.5.2.1.6.2,1,.2,0,.2.1.5.1.9-.9,0-1.8,0-2.7,0s-1.9,0-2.7,0c0-.4,0-.7.1-.9.4,0,.8,0,1-.2.2-.1.4-.3.5-.5,0-.2.1-.6.1-1.1v-10.3h-1c-.6,0-1.1,0-1.4.3-.3.2-.6.5-.7.8-.1.3-.3.8-.4,1.4-.5,0-.8,0-1-.2.2-1.2.3-2.3.3-3.3.8,0,2.5,0,5.2,0s4.5,0,5.2,0v.7Z"/>
    <path class="st10" d="M217.3,188.1c-.8,0-1.6,0-2.3,0s-1.5,0-2.3,0c0-.4,0-.7.1-.9.4,0,.6-.1.8-.2.2,0,.2-.2.2-.4s-.1-.5-.3-1l-.9-2.1c-2.2,0-4,0-5.4,0l-.6,1.4c-.2.6-.3,1-.3,1.3s0,.5.3.6c.2.1.4.2.8.2,0,.2.1.5.1.9-.5,0-1.1,0-1.9,0s-.9,0-1.7,0c0-.3,0-.6.1-.9.4,0,.6-.2.8-.5.2-.3.5-.8.8-1.7l4.2-10.8c.2,0,.5,0,.8,0l4.9,11.1c.3.8.6,1.3.8,1.5.2.2.5.4.8.4,0,.3.1.6.1.9ZM212.3,182.6l-1.6-3.6c-.4-.9-.7-1.7-.9-2.2-.1.5-.4,1.2-.8,2.2l-1.4,3.7h4.6Z"/>
    <path class="st20" d="M232.1,174.2c0,.3,0,.6-.1.9-.3,0-.6,0-.7.3-.2.2-.3.5-.4.9,0,.4-.1,1-.1,1.7v10.1c-.2,0-.5.1-.9.1l-8.4-11v7.1c0,.8,0,1.4.1,1.8,0,.4.2.7.4.9.2.2.5.3.9.3,0,.2.1.5.1.9-.6,0-1.3,0-2,0s-1.5,0-2,0c0-.4,0-.7.1-.9.4,0,.7,0,.9-.3.2-.2.3-.5.4-.9,0-.4.1-1,.1-1.8v-8.4h0c-.2-.3-.4-.5-.5-.6-.2,0-.4-.1-.8-.2,0-.2-.1-.5-.1-.9.4,0,.9,0,1.5,0s1,0,1.4,0l7.9,10.5v-6.8c0-.8,0-1.3-.1-1.8,0-.4-.2-.7-.4-.9-.2-.2-.5-.3-.9-.3,0-.4-.1-.7-.1-.9.6,0,1.2,0,1.9,0s1.4,0,1.9,0Z"/>
    <path class="st26" d="M245,175.6c1.5.9,2.2,2.7,2.2,5.2s-.8,4.8-2.5,5.8c-1.6,1-3.4,1.5-5.3,1.5s-4.3,0-5.3,0c0-.4,0-.7.1-.9.4,0,.7,0,.9-.2.2-.1.3-.3.4-.6,0-.3.1-.7.1-1.2v-8.4c0-.7,0-1.1-.3-1.4-.2-.2-.6-.4-1.1-.4,0-.2-.1-.5-.1-.9.6,0,1.6,0,2.9,0h1.2c.3,0,.7,0,1.2,0,2.2,0,4.1.5,5.6,1.4ZM243.5,185.8c1-.9,1.5-2.5,1.5-4.6s-.3-2.6-.8-3.5c-.6-.9-1.3-1.6-2.2-2-.9-.4-1.9-.6-3-.6s-.5,0-.8,0c-.3,0-.5,0-.7.1v10.1c0,.5,0,.9.1,1.2,0,.3.3.4.5.6.3.1.6.2,1.2.2,1.8,0,3.2-.5,4.2-1.4Z"/>
    <path class="st1" d="M255.4,187.9c-.6-.2-1.3-.5-2-1,.1-.8.2-1.7.2-2.9.3,0,.7-.1,1.1-.1,0,1.1.3,1.9.8,2.5.5.6,1.3.9,2.3.9s1.5-.2,2-.6c.4-.4.6-.9.6-1.5s-.1-1-.4-1.3c-.3-.4-.6-.7-1-.9-.4-.2-.9-.5-1.7-.8-.8-.4-1.5-.7-2-1.1-.5-.3-.9-.7-1.3-1.3-.3-.5-.5-1.2-.5-2,0-1.1.4-2,1.1-2.7.7-.7,1.7-1,3-1s1.3,0,1.9.3c.6.2,1.1.4,1.5.6,0,1.2,0,2.1.1,2.7-.3.1-.7.2-1.1.2-.2-1.1-.5-1.9-.9-2.3-.4-.4-.9-.6-1.6-.6s-1.3.2-1.7.5c-.4.4-.6.9-.6,1.5s.1,1,.4,1.4c.3.4.6.7,1,.9.4.2,1,.5,1.7.9.8.4,1.4.7,1.9,1,.5.3.9.7,1.2,1.2.3.5.5,1.1.5,1.9s-.2,1.4-.5,1.9c-.3.6-.9,1.1-1.6,1.4-.7.4-1.6.5-2.6.5s-1.5-.1-2.1-.3Z"/>
    <path class="st3" d="M273.2,175.3c.7.7,1.1,1.7,1.1,2.8s-.2,1.6-.5,2.3c-.4.7-.9,1.3-1.6,1.7-.7.4-1.5.7-2.5.7s-1,0-1.4-.2c0-.2,0-.3,0-.4,0-.2,0-.3,0-.4.3,0,.7.1,1.1.1,1.9,0,2.9-1.1,2.9-3.2s-.3-2-.8-2.7c-.6-.6-1.4-1-2.6-1s-.6,0-1,.1v9.8c0,.6,0,1,.2,1.3.1.3.3.5.6.6.3.1.6.2,1.1.2,0,.2.1.5.1.9-.6,0-1.5,0-2.6,0s-2.2,0-2.8,0c0-.4,0-.7.1-.9.5,0,.9-.2,1.1-.4.2-.2.3-.7.3-1.4v-8.6c0-.7,0-1.1-.3-1.4-.2-.2-.6-.4-1.1-.4,0-.2-.1-.5-.1-.9.7,0,1.6,0,2.8,0h2.6c1.6,0,2.8.3,3.5,1.1Z"/>
    <path class="st23" d="M287.9,188.1c-.8,0-1.6,0-2.3,0s-1.5,0-2.3,0c0-.4,0-.7.1-.9.4,0,.6-.1.8-.2.2,0,.2-.2.2-.4s-.1-.5-.3-1l-.9-2.1c-2.2,0-4,0-5.4,0l-.6,1.4c-.2.6-.3,1-.3,1.3s0,.5.3.6c.2.1.4.2.8.2,0,.2.1.5.1.9-.5,0-1.1,0-1.9,0s-.9,0-1.7,0c0-.3,0-.6.1-.9.4,0,.6-.2.8-.5.2-.3.5-.8.8-1.7l4.2-10.8c.2,0,.5,0,.8,0l4.9,11.1c.3.8.6,1.3.8,1.5.2.2.5.4.8.4,0,.3.1.6.1.9ZM282.9,182.6l-1.6-3.6c-.4-.9-.7-1.7-.9-2.2-.1.5-.4,1.2-.8,2.2l-1.4,3.7h4.6Z"/>
  </g>
  <path class="st30" d="M184.8,46.1c0,1-.1,1.9-.3,2.7-1.2.3-2.2,1-2.9,2.1s-1.5,2.8-2.4,5.2c-4.1,10.5-8.4,21.2-12.9,32.1-.7.2-1.5.2-2.4.2-4.8-12.9-9-23.7-12.8-32.6-.9-2.2-1.6-3.8-2.1-4.7-.5-.9-.9-1.5-1.3-1.8-.4-.3-1-.5-1.8-.6-.2-.8-.3-1.7-.3-2.7,1.6.1,4.1.2,7.5.2s5.1,0,7.5-.2c0,.8-.1,1.7-.3,2.7-1.4,0-2.4.3-3,.6-.6.3-.9.9-.9,1.6s.5,2.4,1.4,4.6c2.8,6.6,5.9,14.5,9.2,23.7,3.6-8.2,6.7-15.8,9.2-23,.6-1.6.9-3,.9-4.1s-.3-1.8-.8-2.4c-.5-.6-1.4-.9-2.6-1.1-.2-.8-.3-1.7-.3-2.7,1.8.1,3.6.2,5.3.2,2.4,0,4.5,0,6.3-.2Z"/>
  <g>
    <path class="st4" d="M58.2,119c0,1-.1,1.9-.3,2.7-1.2.3-2.2,1-2.9,2.1-.7,1.1-1.6,2.9-2.5,5.3-4.1,10.6-8.5,21.4-13.1,32.5-.7.2-1.5.2-2.4.2-4.8-13-9.1-24-12.9-32.9-1-2.3-1.7-3.8-2.1-4.7-.5-.9-.9-1.5-1.3-1.8-.4-.3-1.1-.5-1.8-.6-.2-.8-.3-1.7-.3-2.7,1.6.1,4.1.2,7.6.2s5.2,0,7.6-.2c0,.8-.1,1.7-.3,2.7-1.4,0-2.4.3-3,.6-.6.3-.9.9-.9,1.7s.5,2.5,1.4,4.6c2.8,6.7,5.9,14.7,9.3,24,3.6-8.3,6.7-16,9.3-23.3.6-1.7.9-3,.9-4.1s-.3-1.8-.8-2.4c-.5-.6-1.4-.9-2.6-1.1-.2-.8-.3-1.7-.3-2.7,1.8.1,3.6.2,5.3.2,2.5,0,4.6,0,6.4-.2Z"/>
    <path class="st27" d="M67,122.9c-.6-.7-1.7-1.1-3.4-1.2-.2-.6-.3-1.5-.3-2.7,2.3.1,4.8.2,7.6.2s5.1,0,7.6-.2c0,1.2-.1,2.1-.3,2.7-1.7,0-2.8.5-3.4,1.2-.6.7-.9,2.1-.9,4.2v26.4c0,2.1.3,3.5.9,4.2.6.7,1.7,1.1,3.4,1.2.2.6.3,1.5.3,2.7-2.5-.1-5-.2-7.6-.2s-5.4,0-7.6.2c0-1.2.1-2.1.3-2.7,1.7,0,2.8-.5,3.4-1.2.6-.7.9-2.1.9-4.2v-26.4c0-2.1-.3-3.5-.9-4.2Z"/>
    <path class="st8" d="M93.7,159.2c-3-1.9-5.4-4.4-7.1-7.8-1.7-3.3-2.5-7.1-2.5-11.4s1-8.5,2.9-11.7c1.9-3.2,4.5-5.6,7.7-7.3,3.2-1.6,6.6-2.4,10.3-2.4s4.9.3,7.1.8c2.2.5,4.4,1.3,6.8,2.5-.5,2.2-.7,5.4-.7,9.7-.9.4-2,.6-3.3.6-.2-4.2-1-7-2.6-8.6-1.5-1.6-3.8-2.3-6.8-2.3s-6.2.8-8.4,2.4c-2.2,1.6-3.8,3.7-4.9,6.3-1,2.6-1.6,5.4-1.6,8.5s.6,7.1,1.9,10.2c1.3,3,3.1,5.4,5.5,7.1,2.4,1.7,5.3,2.6,8.5,2.6s4-.3,6.1-1c2.1-.7,4-1.6,5.8-2.7.2.2.5.5.7.9.2.4.4.7.4,1-2.5,2-5,3.4-7.4,4.3-2.4.9-5.1,1.3-8.2,1.3s-7.3-.9-10.3-2.8Z"/>
    <path class="st6" d="M157.3,121.2c0,1.7.1,4.3.4,7.8-.9.4-1.9.6-3.1.6,0-2.5-.7-4.4-1.8-5.7-1.1-1.3-2.9-1.9-5.3-1.9h-3.3v31.6c0,1.5.1,2.6.4,3.3.3.7.7,1.3,1.4,1.6.7.3,1.7.5,3.1.6.2.6.3,1.5.3,2.7-2.7-.1-5.4-.2-8.2-.2s-5.9,0-8.2.2c0-1.2.1-2.1.3-2.7,1.4,0,2.4-.3,3.1-.6.7-.3,1.2-.8,1.5-1.6.3-.8.4-1.8.4-3.3v-31.6h-3.2c-1.9,0-3.4.3-4.4.9-1,.6-1.8,1.4-2.2,2.4-.4,1-.8,2.4-1.2,4.3-1.4,0-2.4-.2-3-.6.7-3.8,1-7.1,1-10,2.3.1,7.6.2,15.9.2s13.8,0,16.1-.2v2.3Z"/>
    <path class="st31" d="M170.8,159.2c-3.1-1.9-5.6-4.5-7.3-7.8-1.7-3.3-2.6-7-2.6-11.2s.9-7.9,2.7-11.2c1.8-3.3,4.3-5.8,7.4-7.7,3.1-1.8,6.6-2.8,10.5-2.8s7.5.9,10.7,2.7c3.1,1.8,5.6,4.4,7.4,7.6,1.8,3.3,2.7,7,2.7,11.2s-.9,7.8-2.7,11.1c-1.8,3.3-4.2,5.9-7.4,7.8-3.1,1.9-6.7,2.9-10.7,2.9s-7.6-.9-10.8-2.8ZM189.7,156.7c2-1.5,3.5-3.6,4.5-6.2,1-2.6,1.6-5.5,1.6-8.7s-.7-7.1-2-10.2c-1.4-3.1-3.2-5.5-5.6-7.3-2.4-1.8-5-2.7-7.9-2.7s-4.7.7-6.6,2.1c-2,1.4-3.5,3.4-4.6,5.9-1.1,2.5-1.7,5.5-1.7,8.8s.6,6.9,1.8,10.1c1.2,3.1,3,5.6,5.3,7.5,2.3,1.9,5.1,2.8,8.3,2.8s4.9-.7,6.9-2.2Z"/>
    <path class="st11" d="M239.6,156.3c.7.8,1.4,1.4,2.3,1.8.9.4,2.1.6,3.7.7,0,1.2,0,2.1-.2,2.7-4.3,0-7.5.2-9.8.6-1.6-2.5-3-5-4.2-7.4l-.8-1.4c-1.3-2.3-2.5-4.3-3.5-5.8-1.1-1.6-2.5-3.3-4.2-5.2h-1.9c-.6,0-1.4,0-2.4,0v11.3c0,2.1.3,3.5.8,4.2.6.7,1.7,1.1,3.3,1.2.2.6.3,1.5.3,2.7-1.8-.1-4.3-.2-7.4-.2s-5.6,0-7.5.2c0-1.1.1-2,.3-2.7,1.7,0,2.9-.5,3.4-1.2.6-.7.9-2.1.9-4.2v-26.4c0-2.1-.3-3.5-.9-4.3-.6-.8-1.7-1.2-3.4-1.2-.2-.7-.3-1.5-.3-2.6,1.7,0,4.2.1,7.5.1s4,0,5.2,0h5.3c4.5,0,7.9.9,10.2,2.8s3.4,4.5,3.4,7.6-.9,5.1-2.8,7.1c-1.9,2-4.4,3.4-7.7,4.3,1.5,1.5,2.7,3.1,3.7,4.5s2.5,3.9,4.4,7.2c1,1.6,1.8,2.8,2.4,3.6ZM221.2,139.5c3.6,0,6.6-.8,8.8-2.3,2.2-1.6,3.4-3.9,3.4-7s-.8-4.7-2.5-6.2c-1.6-1.5-4.3-2.2-7.8-2.2s-3,.2-4.6.5v17c1,.1,1.9.2,2.8.2Z"/>
    <path class="st16" d="M254.4,122.9c-.6-.7-1.7-1.1-3.4-1.2-.2-.6-.3-1.5-.3-2.7,2.3.1,4.8.2,7.6.2s5.1,0,7.6-.2c0,1.2-.1,2.1-.3,2.7-1.7,0-2.8.5-3.4,1.2-.6.7-.9,2.1-.9,4.2v26.4c0,2.1.3,3.5.9,4.2.6.7,1.7,1.1,3.4,1.2.2.6.3,1.5.3,2.7-2.5-.1-5-.2-7.6-.2s-5.4,0-7.6.2c0-1.2.1-2.1.3-2.7,1.7,0,2.8-.5,3.4-1.2.6-.7.9-2.1.9-4.2v-26.4c0-2.1-.3-3.5-.9-4.2Z"/>
    <path class="st14" d="M311.8,161.6c-2.5-.1-4.9-.2-7.1-.2s-4.6,0-7.1.2c0-1.2.1-2.1.4-2.7,1.2-.1,2-.3,2.5-.6.5-.3.7-.7.7-1.3s-.3-1.5-.9-3.1l-2.8-6.4c-6.6,0-12.1,0-16.5.2l-1.7,4.3c-.7,1.8-1,3.1-1,4.1s.3,1.5.8,1.8c.5.4,1.3.6,2.5.7.3.7.4,1.6.4,2.7-1.4-.1-3.4-.2-5.9-.2s-2.8,0-5.2.2c0-1,.1-1.9.4-2.6,1.1-.2,1.9-.8,2.6-1.6.6-.9,1.4-2.6,2.4-5.1l12.9-33.2c.7-.2,1.5-.2,2.4-.2l14.9,34.1c1,2.3,1.9,3.9,2.5,4.6.6.8,1.4,1.2,2.3,1.4.2.8.4,1.7.4,2.7ZM296.4,144.9l-4.7-11.1c-1.3-2.9-2.2-5.1-2.7-6.8-.5,1.4-1.3,3.7-2.4,6.8l-4.3,11.2h14.2Z"/>
  </g>
</svg>